<svg width="80" height="14" viewBox="0 0 80 14" fill="none" xmlns="http://www.w3.org/2000/svg">
<path fill-rule="evenodd" clip-rule="evenodd" d="M11.3114 3.40287C12.2667 3.40287 13.0077 2.65976 13.0077 1.70143C13.0077 0.743203 12.2667 0 11.3114 0C10.356 0 9.61502 0.743203 9.61502 1.70143C9.61502 2.65976 10.356 3.40287 11.3114 3.40287Z" fill="black"/>
<path fill-rule="evenodd" clip-rule="evenodd" d="M9.47852 10.0522H13.1442L12.3643 3.97006C11.7793 4.14612 10.8434 4.14612 10.2584 3.97006L9.47852 10.0522Z" fill="black"/>
<path fill-rule="evenodd" clip-rule="evenodd" d="M4.44651 10.3116C6.92328 10.3116 8.42493 9.00279 8.42493 6.96025C8.42493 5.53257 7.56685 4.56086 5.79216 4.1643L4.05642 3.76766C3.39338 3.60904 3.04234 3.39091 3.04234 2.99427C3.04234 2.59772 3.3739 2.33998 4.11494 2.33998C5.01207 2.33998 5.94815 2.77614 6.59172 3.37111L8.05441 1.18984C7.35233 0.555266 5.90911 0 4.11494 0C1.79417 0 0.233998 1.16994 0.233998 3.15298C0.233998 4.60056 1.03365 5.65149 2.73034 6.04813L4.46598 6.46458C5.32407 6.66281 5.59711 6.92064 5.59711 7.25778C5.59711 7.69403 5.24607 7.93196 4.44651 7.93196C3.51043 7.93196 2.3793 7.53541 1.4626 6.74222L0 8.92348C0.682608 9.55806 2.24278 10.3116 4.44651 10.3116Z" fill="#F4333D"/>
<path fill-rule="evenodd" clip-rule="evenodd" d="M14.8611 10.1133H17.7864V4.77908C17.7864 3.47032 18.4105 2.65732 19.6197 2.65732C20.7703 2.65732 21.3749 3.3315 21.3749 4.77908V10.1133H24.3002V4.02559C24.3002 1.36836 22.9936 9.82915e-05 20.7508 9.82915e-05C19.4637 9.82915e-05 18.4885 0.515662 17.7864 1.52698V0.892409C17.7864 0.456156 17.533 0.198327 17.1039 0.198327H14.8611V10.1133Z" fill="#F4333D"/>
<path fill-rule="evenodd" clip-rule="evenodd" d="M31.0483 7.2182C29.8196 7.2182 28.825 6.20688 28.825 4.91793C28.825 3.62897 29.8196 2.61765 31.0483 2.61765C32.3745 2.61765 33.33 3.62897 33.33 4.91793C33.33 6.20688 32.3745 7.2182 31.0483 7.2182ZM33.9151 0.198327C33.486 0.198327 33.2326 0.456156 33.2326 0.892409V1.48728C32.5694 0.47596 31.5163 9.82915e-05 30.2682 9.82915e-05C27.9085 9.82915e-05 25.8608 2.10205 25.8608 4.9179C25.8608 7.73374 27.9085 9.8357 30.2682 9.8357C31.5163 9.8357 32.5305 9.43914 33.2326 8.54674V9.18132C33.2326 10.5298 32.3549 11.5015 30.8533 11.5015C29.5076 11.5015 28.474 10.9263 27.8305 10.2918L26.3093 12.592C27.2844 13.4844 28.903 14 30.8533 14C33.7786 14 36.1579 12.5127 36.1579 8.78476V0.198327H33.9151Z" fill="#F4333D"/>
<path fill-rule="evenodd" clip-rule="evenodd" d="M43.5886 7.69406C42.204 7.69406 41.1313 6.64304 41.1313 5.15585C41.1313 3.66857 42.204 2.61755 43.5886 2.61755C44.9537 2.61755 45.9874 3.66857 45.9874 5.15585C45.9874 6.64304 44.9537 7.69406 43.5886 7.69406ZM44.3687 0C43.0426 0 41.9504 0.475862 41.2289 1.48728V0.892311C41.2289 0.456151 40.9753 0.198322 40.5463 0.198322H38.3036V13.762H41.2289V9.0226C41.9895 9.91491 43.0426 10.3116 44.3687 10.3116C46.904 10.3116 48.9517 8.2096 48.9517 5.15582C48.9517 2.10196 46.904 0 44.3687 0Z" fill="#F4333D"/>
<path fill-rule="evenodd" clip-rule="evenodd" d="M55.5632 7.69406C54.1981 7.69406 53.1644 6.64304 53.1644 5.15585C53.1644 3.66857 54.1981 2.61755 55.5632 2.61755C56.9478 2.61755 58.0205 3.66857 58.0205 5.15585C58.0205 6.64304 56.9478 7.69406 55.5632 7.69406ZM58.6056 0.198322C58.1765 0.198322 57.9229 0.456151 57.9229 0.892311V1.48728C57.2014 0.475862 56.1092 0 54.7831 0C52.2478 0 50.2001 2.10196 50.2001 5.15582C50.2001 8.2096 52.2478 10.3116 54.7831 10.3116C56.1092 10.3116 57.2014 9.8356 57.9229 8.82437V10.1132H60.8482V0.198322H58.6056Z" fill="#F4333D"/>
<path fill-rule="evenodd" clip-rule="evenodd" d="M66.7772 10.3116C69.254 10.3116 70.7556 9.00279 70.7556 6.96025C70.7556 5.53257 69.8975 4.56086 68.1228 4.1643L66.3871 3.76766C65.7241 3.60904 65.373 3.39091 65.373 2.99427C65.373 2.59772 65.7046 2.33998 66.4456 2.33998C67.3428 2.33998 68.2788 2.77614 68.9224 3.37111L70.3851 1.18984C69.683 0.555266 68.2398 0 66.4456 0C64.1249 0 62.5647 1.16994 62.5647 3.15298C62.5647 4.60056 63.3643 5.65149 65.061 6.04813L66.7967 6.46458C67.6548 6.66281 67.9278 6.92064 67.9278 7.25778C67.9278 7.69403 67.5768 7.93196 66.7772 7.93196C65.8411 7.93196 64.71 7.53541 63.7934 6.74222L62.3307 8.92348C63.0133 9.55806 64.5735 10.3116 66.7772 10.3116Z" fill="#F4333D"/>
<path fill-rule="evenodd" clip-rule="evenodd" d="M76.0216 10.3116C78.4983 10.3116 80 9.00279 80 6.96025C80 5.53257 79.1419 4.56086 77.3672 4.1643L75.6315 3.76766C74.9685 3.60904 74.6174 3.39091 74.6174 2.99427C74.6174 2.59772 74.949 2.33998 75.69 2.33998C76.5871 2.33998 77.5232 2.77614 78.1668 3.37111L79.6295 1.18984C78.9274 0.555266 77.4842 0 75.69 0C73.3692 0 71.8091 1.16994 71.8091 3.15298C71.8091 4.60056 72.6087 5.65149 74.3053 6.04813L76.0411 6.46458C76.8991 6.66281 77.1722 6.92064 77.1722 7.25778C77.1722 7.69403 76.8211 7.93196 76.0216 7.93196C75.0855 7.93196 73.9544 7.53541 73.0377 6.74222L71.5751 8.92348C72.2577 9.55806 73.8179 10.3116 76.0216 10.3116Z" fill="#F4333D"/>
</svg>
